<svg width="152" height="27" viewBox="0 0 152 27" fill="none" xmlns="http://www.w3.org/2000/svg">
<path d="M0.476 0.799998H6.524C8.492 0.799998 9.968 1.328 10.952 2.384C11.936 3.44 12.428 4.988 12.428 7.028V19.772C12.428 21.812 11.936 23.36 10.952 24.416C9.968 25.472 8.492 26 6.524 26H0.476V0.799998ZM6.452 22.4C7.1 22.4 7.592 22.208 7.928 21.824C8.288 21.44 8.468 20.816 8.468 19.952V6.848C8.468 5.984 8.288 5.36 7.928 4.976C7.592 4.592 7.1 4.4 6.452 4.4H4.436V22.4H6.452ZM15.101 0.799998H20.969C23.009 0.799998 24.497 1.28 25.433 2.24C26.369 3.176 26.837 4.628 26.837 6.596V8.144C26.837 10.76 25.973 12.416 24.245 13.112V13.184C25.205 13.472 25.877 14.06 26.261 14.948C26.669 15.836 26.873 17.024 26.873 18.512V22.94C26.873 23.66 26.897 24.248 26.945 24.704C26.993 25.136 27.113 25.568 27.305 26H23.273C23.129 25.592 23.033 25.208 22.985 24.848C22.937 24.488 22.913 23.84 22.913 22.904V18.296C22.913 17.144 22.721 16.34 22.337 15.884C21.977 15.428 21.341 15.2 20.429 15.2H19.061V26H15.101V0.799998ZM20.501 11.6C21.293 11.6 21.881 11.396 22.265 10.988C22.673 10.58 22.877 9.896 22.877 8.936V6.992C22.877 6.08 22.709 5.42 22.373 5.012C22.061 4.604 21.557 4.4 20.861 4.4H19.061V11.6H20.501ZM35.3445 26.36C33.4005 26.36 31.9125 25.808 30.8805 24.704C29.8485 23.6 29.3325 22.04 29.3325 20.024V6.776C29.3325 4.76 29.8485 3.2 30.8805 2.096C31.9125 0.991999 33.4005 0.439999 35.3445 0.439999C37.2885 0.439999 38.7765 0.991999 39.8085 2.096C40.8405 3.2 41.3565 4.76 41.3565 6.776V20.024C41.3565 22.04 40.8405 23.6 39.8085 24.704C38.7765 25.808 37.2885 26.36 35.3445 26.36ZM35.3445 22.76C36.7125 22.76 37.3965 21.932 37.3965 20.276V6.524C37.3965 4.868 36.7125 4.04 35.3445 4.04C33.9765 4.04 33.2925 4.868 33.2925 6.524V20.276C33.2925 21.932 33.9765 22.76 35.3445 22.76ZM44.0346 0.799998H49.0026L52.8546 15.884H52.9266V0.799998H56.4546V26H52.3866L47.6346 7.604H47.5626V26H44.0346V0.799998ZM59.3979 0.799998H70.1979V4.4H63.3579V11.06H68.7939V14.66H63.3579V22.4H70.1979V26H59.3979V0.799998Z" fill="#6889FF"/>
<path d="M72.476 22.184H76.292V26H72.476V22.184ZM84.4092 26.36C82.4892 26.36 81.0372 25.82 80.0532 24.74C79.0692 23.636 78.5772 22.064 78.5772 20.024V18.584H82.3212V20.312C82.3212 21.944 83.0052 22.76 84.3732 22.76C85.0452 22.76 85.5492 22.568 85.8852 22.184C86.2452 21.776 86.4252 21.128 86.4252 20.24C86.4252 19.184 86.1852 18.26 85.7052 17.468C85.2252 16.652 84.3372 15.68 83.0412 14.552C81.4092 13.112 80.2692 11.816 79.6212 10.664C78.9732 9.488 78.6492 8.168 78.6492 6.704C78.6492 4.712 79.1532 3.176 80.1612 2.096C81.1692 0.991999 82.6332 0.439999 84.5532 0.439999C86.4492 0.439999 87.8772 0.991999 88.8372 2.096C89.8212 3.176 90.3132 4.736 90.3132 6.776V7.82H86.5692V6.524C86.5692 5.66 86.4012 5.036 86.0652 4.652C85.7292 4.244 85.2372 4.04 84.5892 4.04C83.2692 4.04 82.6092 4.844 82.6092 6.452C82.6092 7.364 82.8492 8.216 83.3292 9.008C83.8332 9.8 84.7332 10.76 86.0292 11.888C87.6852 13.328 88.8252 14.636 89.4492 15.812C90.0732 16.988 90.3852 18.368 90.3852 19.952C90.3852 22.016 89.8692 23.6 88.8372 24.704C87.8292 25.808 86.3532 26.36 84.4092 26.36ZM92.6557 0.799998H103.456V4.4H96.6157V11.06H102.052V14.66H96.6157V22.4H103.456V26H92.6557V0.799998ZM105.734 0.799998H111.602C113.642 0.799998 115.13 1.28 116.066 2.24C117.002 3.176 117.47 4.628 117.47 6.596V8.144C117.47 10.76 116.606 12.416 114.878 13.112V13.184C115.838 13.472 116.51 14.06 116.894 14.948C117.302 15.836 117.506 17.024 117.506 18.512V22.94C117.506 23.66 117.53 24.248 117.578 24.704C117.626 25.136 117.746 25.568 117.938 26H113.906C113.762 25.592 113.666 25.208 113.618 24.848C113.57 24.488 113.546 23.84 113.546 22.904V18.296C113.546 17.144 113.354 16.34 112.97 15.884C112.61 15.428 111.974 15.2 111.062 15.2H109.694V26H105.734V0.799998ZM111.134 11.6C111.926 11.6 112.514 11.396 112.898 10.988C113.306 10.58 113.51 9.896 113.51 8.936V6.992C113.51 6.08 113.342 5.42 113.006 5.012C112.694 4.604 112.19 4.4 111.494 4.4H109.694V11.6H111.134ZM120.253 0.799998H124.213V26H120.253V0.799998ZM127.179 0.799998H137.979V4.4H131.139V11.06H136.575V14.66H131.139V22.4H137.979V26H127.179V0.799998ZM145.476 26.36C143.556 26.36 142.104 25.82 141.12 24.74C140.136 23.636 139.644 22.064 139.644 20.024V18.584H143.388V20.312C143.388 21.944 144.072 22.76 145.44 22.76C146.112 22.76 146.616 22.568 146.952 22.184C147.312 21.776 147.492 21.128 147.492 20.24C147.492 19.184 147.252 18.26 146.772 17.468C146.292 16.652 145.404 15.68 144.108 14.552C142.476 13.112 141.336 11.816 140.688 10.664C140.04 9.488 139.716 8.168 139.716 6.704C139.716 4.712 140.22 3.176 141.228 2.096C142.236 0.991999 143.7 0.439999 145.62 0.439999C147.516 0.439999 148.944 0.991999 149.904 2.096C150.888 3.176 151.38 4.736 151.38 6.776V7.82H147.636V6.524C147.636 5.66 147.468 5.036 147.132 4.652C146.796 4.244 146.304 4.04 145.656 4.04C144.336 4.04 143.676 4.844 143.676 6.452C143.676 7.364 143.916 8.216 144.396 9.008C144.9 9.8 145.8 10.76 147.096 11.888C148.752 13.328 149.892 14.636 150.516 15.812C151.14 16.988 151.452 18.368 151.452 19.952C151.452 22.016 150.936 23.6 149.904 24.704C148.896 25.808 147.42 26.36 145.476 26.36Z" fill="white"/>
</svg>
