<svg width="14" height="10" viewBox="0 0 14 10" fill="none" xmlns="http://www.w3.org/2000/svg">
<path fill-rule="evenodd" clip-rule="evenodd" d="M14 4.99999C14 4.86738 13.9473 4.74021 13.8535 4.64644C13.7598 4.55267 13.6326 4.49999 13.5 4.49999H1.70698L4.85398 1.35399C4.90047 1.3075 4.93734 1.25231 4.9625 1.19157C4.98766 1.13083 5.00061 1.06573 5.00061 0.999991C5.00061 0.934247 4.98766 0.869147 4.9625 0.808407C4.93734 0.747668 4.90047 0.692479 4.85398 0.645991C4.80749 0.599503 4.7523 0.562627 4.69156 0.537467C4.63082 0.512308 4.56572 0.499359 4.49998 0.499359C4.43423 0.499359 4.36913 0.512308 4.30839 0.537467C4.24765 0.562627 4.19247 0.599503 4.14598 0.645991L0.145978 4.64599C0.099415 4.69244 0.0624722 4.74761 0.0372657 4.80836C0.0120593 4.8691 -0.000915527 4.93422 -0.000915527 4.99999C-0.000915527 5.06576 0.0120593 5.13088 0.0372657 5.19162C0.0624722 5.25237 0.099415 5.30754 0.145978 5.35399L4.14598 9.35399C4.19247 9.40048 4.24765 9.43736 4.30839 9.46251C4.36913 9.48767 4.43423 9.50062 4.49998 9.50062C4.56572 9.50062 4.63082 9.48767 4.69156 9.46251C4.7523 9.43736 4.80749 9.40048 4.85398 9.35399C4.90047 9.3075 4.93734 9.25231 4.9625 9.19157C4.98766 9.13083 5.00061 9.06573 5.00061 8.99999C5.00061 8.93425 4.98766 8.86915 4.9625 8.80841C4.93734 8.74767 4.90047 8.69248 4.85398 8.64599L1.70698 5.49999H13.5C13.6326 5.49999 13.7598 5.44731 13.8535 5.35354C13.9473 5.25978 14 5.1326 14 4.99999Z" fill="white"/>
</svg>
